<svg class="icon" style="width: 1em;height: 1em;vertical-align: middle;fill: currentColor;overflow: hidden;" viewBox="0 0 1024 1024" version="1.1" xmlns="http://www.w3.org/2000/svg" p-id="11164"><path d="M286.72 888.1664H177.3568a56.32 56.32 0 0 1-56.32-56.32V483.84a56.32 56.32 0 0 1 56.32-56.32H286.72z" fill="#FFBE4A" p-id="11165"></path><path d="M592.3328 404.48c106.6496-281.9584-30.72-305.152-61.44-297.6256a69.4784 69.4784 0 0 0-52.5312 60.672c-1.5872 25.9072-2.1504 71.68-19.0464 117.1968-32.7168 92.8768-148.48 138.5984-172.5952 142.592v460.8h484.2496a62.6176 62.6176 0 0 0 60.6208-48.9472l83.3536-355.9424A63.4368 63.4368 0 0 0 854.3232 404.48z" fill="#FF5A5A" p-id="11166"></path><path d="M592.0768 419.84c106.6496-296.4992-30.72-320.9216-61.44-312.9856a69.9904 69.9904 0 0 0-26.7776 13.8752c34.6112 24.4736 64.256 84.736 29.0304 221.8496A61.44 61.44 0 0 0 592.0768 419.84zM854.3232 404.48h-83.0464a63.4368 63.4368 0 0 1 60.6208 78.592l-83.1488 355.9936a62.6176 62.6176 0 0 1-60.6208 48.9472h83.0464a62.6176 62.6176 0 0 0 60.6208-48.9472l83.1488-355.84A63.4368 63.4368 0 0 0 854.3232 404.48z" fill="#FF4436" p-id="11167"></path><path d="M914.7392 418.6624a76.8 76.8 0 0 0-60.416-29.5424H614.4c55.0912-156.8256 31.4368-230.4 0.8704-265.0624-28.8256-32.2048-68.3008-36.7616-87.9104-31.8976-35.2256 8.704-62.3616 40.0384-64.4608 74.496 0 2.9696-0.3584 6.1952-0.512 9.6768-1.3824 25.9072-3.3792 65.0752-17.6128 103.3216-28.928 81.92-133.12 127.2832-159.4368 132.352H177.3568a71.9872 71.9872 0 0 0-71.68 71.68v347.8016a71.9872 71.9872 0 0 0 71.68 71.68h593.92a77.6704 77.6704 0 0 0 75.5712-60.8256L930.048 486.4a79.872 79.872 0 0 0-15.3088-67.7376zM136.192 831.6416V483.84a40.96 40.96 0 0 1 40.96-40.96H271.36v430.08H177.3568a40.96 40.96 0 0 1-41.1648-41.3184zM899.9936 479.744l-83.1488 355.9936a47.104 47.104 0 0 1-45.6704 37.0688H302.08V439.2448c42.5472-13.056 140.544-61.44 171.4688-149.1456 15.7696-42.4448 17.9712-84.4288 19.4048-112.2304 0-3.3792 0.3584-6.5024 0.512-9.4208a54.2208 54.2208 0 0 1 40.96-46.4896c9.5232-2.3552 37.2736 0 57.344 22.6304 21.504 24.2176 48.2304 89.5488-14.1824 254.5664a15.36 15.36 0 0 0 14.336 20.8384h261.9904A46.08 46.08 0 0 1 890.88 437.76a48.9984 48.9984 0 0 1 9.1136 41.984z" fill="#333333" p-id="11168"></path><path d="M374.5792 473.6512a15.36 15.36 0 0 1-4.7616-29.952c46.08-15.36 79.4624-50.2272 99.2768-76.8a15.36 15.36 0 1 1 24.6784 18.2784c-22.4256 30.1568-60.5184 70.0416-114.3808 87.7056a15.36 15.36 0 0 1-4.8128 0.768zM506.1632 352a15.36 15.36 0 0 1-7.168-1.792 15.36 15.36 0 0 1-6.4-20.7872c4.1984-7.8848 6.2976-12.8 6.2976-12.8512a15.36 15.36 0 0 1 28.4672 11.8784s-2.56 6.144-7.4752 15.36a15.36 15.36 0 0 1-13.7216 8.192zM185.856 673.0752a15.36 15.36 0 0 1-15.36-15.36V510.464a15.36 15.36 0 0 1 30.72 0v147.2512a15.36 15.36 0 0 1-15.36 15.36z" fill="#FFFFFF" p-id="11169"></path></svg>