<svg class="icon" style="width: 1em;height: 1em;vertical-align: middle;fill: currentColor;overflow: hidden;" viewBox="0 0 1024 1024" version="1.1" xmlns="http://www.w3.org/2000/svg" p-id="547"><path d="M64 256a128 128 0 0 1 128-128h227.114667a42.666667 42.666667 0 0 1 39.616 26.816L499.178667 256H832a128 128 0 0 1 128 128v170.666667a21.333333 21.333333 0 0 1-21.333333 21.333333H85.333333a21.333333 21.333333 0 0 1-21.333333-21.333333V256z" fill="#FEC833" opacity=".5" p-id="548"></path><path d="M149.333333 384h725.333334a85.333333 85.333333 0 0 1 85.333333 85.333333v298.666667a128 128 0 0 1-128 128H192a128 128 0 0 1-128-128V469.333333a85.333333 85.333333 0 0 1 85.333333-85.333333z" fill="#FAB007" p-id="549"></path></svg>