<svg class="icon" style="width: 1em;height: 1em;vertical-align: middle;fill: currentColor;overflow: hidden;" viewBox="0 0 1024 1024" version="1.1" xmlns="http://www.w3.org/2000/svg" p-id="358"><path d="M192 192m85.333333 0l469.333334 0q85.333333 0 85.333333 85.333333l0 405.333334q0 85.333333-85.333333 85.333333l-469.333334 0q-85.333333 0-85.333333-85.333333l0-405.333334q0-85.333333 85.333333-85.333333Z" fill="#70B8FF" p-id="359"></path><path d="M256 256m42.666667 0l426.666666 0q42.666667 0 42.666667 42.666667l0 362.666666q0 42.666667-42.666667 42.666667l-426.666666 0q-42.666667 0-42.666667-42.666667l0-362.666666q0-42.666667 42.666667-42.666667Z" fill="#FCFCFC" opacity=".6" p-id="360"></path><path d="M64 704m64 0l768 0q64 0 64 64l0 0q0 64-64 64l-768 0q-64 0-64-64l0 0q0-64 64-64Z" fill="#4A9EFF" p-id="361"></path><path d="M451.114667 391.253333a4.266667 4.266667 0 0 1 2.517333 0.853334l139.52 102.485333a4.266667 4.266667 0 0 1-0.597333 7.232l-55.850667 28.437333 37.546667 75.050667-28.629334 14.293333-37.418666-74.837333-55.168 28.074667a4.266667 4.266667 0 0 1-6.186667-3.797334V395.52c0-2.346667 1.92-4.266667 4.266667-4.266667z" fill="#237FFA" p-id="362"></path></svg>