<svg class="icon" style="width: 1em;height: 1em;vertical-align: middle;fill: currentColor;overflow: hidden;" viewBox="0 0 1024 1024" version="1.1" xmlns="http://www.w3.org/2000/svg" p-id="445"><path d="M720.96 240.746667A85.333333 85.333333 0 0 1 725.333333 267.733333v482.197334a85.333333 85.333333 0 0 1-116.266666 79.530666l-186.133334-72.384a127.786667 127.786667 0 0 1-51.733333-37.12A85.013333 85.013333 0 0 1 341.333333 725.333333h-128a128 128 0 0 1-128-128v-192a128 128 0 0 1 128-128h128c11.669333 0 22.805333 2.346667 32.938667 6.592a127.445333 127.445333 0 0 1 54.592-35.776l184.149333-61.376a85.333333 85.333333 0 0 1 107.946667 53.973334z" fill="#FAB007" p-id="446"></path><path d="M768 469.333333m42.666667 0l85.333333 0q42.666667 0 42.666667 42.666667l0 0q0 42.666667-42.666667 42.666667l-85.333333 0q-42.666667 0-42.666667-42.666667l0 0q0-42.666667 42.666667-42.666667Z" fill="#FEE789" p-id="447"></path><path d="M758.099166 325.716249m36.950417-21.333333l73.900834-42.666667q36.950417-21.333333 58.283751 15.617084l0 0q21.333333 36.950417-15.617084 58.283751l-73.900835 42.666667q-36.950417 21.333333-58.28375-15.617084l0 0q-21.333333-36.950417 15.617084-58.283751Z" fill="#FEE789" p-id="448"></path><path d="M758.098241 698.2872m36.950418 21.333333l73.900834 42.666667q36.950417 21.333333 58.283751-15.617084l0 0q21.333333-36.950417-15.617084-58.283751l-73.900835-42.666666q-36.950417-21.333333-58.28375 15.617083l0 0q-21.333333 36.950417 15.617084 58.283751Z" fill="#FEE789" p-id="449"></path></svg>