<svg class="icon" style="width: 1em;height: 1em;vertical-align: middle;fill: currentColor;overflow: hidden;" viewBox="0 0 1024 1024" version="1.1" xmlns="http://www.w3.org/2000/svg" p-id="596"><path d="M341.333333 64h341.333334a128 128 0 0 1 128 128v640a128 128 0 0 1-128 128H341.333333a128 128 0 0 1-128-128V192a128 128 0 0 1 128-128z" fill="#237FFA" p-id="597"></path><path d="M469.333333 768m10.666667 0l64 0q10.666667 0 10.666667 10.666667l0 64q0 10.666667-10.666667 10.666666l-64 0q-10.666667 0-10.666667-10.666666l0-64q0-10.666667 10.666667-10.666667Z" fill="#BDE2FF" p-id="598"></path></svg>