<svg class="icon" style="width: 1em;height: 1em;vertical-align: middle;fill: currentColor;overflow: hidden;" viewBox="0 0 1024 1024" version="1.1" xmlns="http://www.w3.org/2000/svg" p-id="634"><path d="M512 85.333333c235.648 0 426.666667 191.018667 426.666667 426.666667s-191.018667 426.666667-426.666667 426.666667c-52.437333 0-102.677333-9.450667-149.077333-26.773334l-116.096 76.650667 8.149333-135.936C151.936 774.72 85.333333 651.136 85.333333 512 85.333333 276.352 276.352 85.333333 512 85.333333z" fill="#FE7840" p-id="635"></path><path d="M473.536 746.666667h42.666667a21.333333 21.333333 0 0 0 21.333333-21.333334v-42.666666a21.333333 21.333333 0 0 0-21.333333-21.333334h-42.666667a21.333333 21.333333 0 0 0-21.333333 21.333334v42.666666a21.333333 21.333333 0 0 0 21.333333 21.333334z m68.181333-167.872l0.64-42.325334c64.661333-19.626667 113.792-65.386667 113.792-135.36 0-66.026667-44.586667-122.922667-140.928-122.922666-64.426667 0-123.114667 31.36-148.224 95.36a128.64 128.64 0 0 0-3.456 10.389333 21.333333 21.333333 0 0 0 17.365334 27.093333l46.506666 6.741334a21.312 21.312 0 0 0 22.293334-11.989334c5.077333-10.794667 9.728-18.389333 13.952-22.784a68.693333 68.693333 0 0 1 50.282666-21.12c28.437333 0 52.992 16.362667 52.992 45.12 0 40.448-30.506667 64.896-69.077333 77.824-2.218667 0.746667-4.757333 1.493333-7.637333 2.282667a42.688 42.688 0 0 0-31.530667 41.621333l0.512 50.069334a41.152 41.152 0 0 0 41.173333 40.725333c22.570667 0 41.002667-18.133333 41.344-40.725333z" fill="#FFFFFF" p-id="636"></path></svg>