<svg class="icon" style="width: 1em;height: 1em;vertical-align: middle;fill: currentColor;overflow: hidden;" viewBox="0 0 1024 1024" version="1.1" xmlns="http://www.w3.org/2000/svg" p-id="608"><path d="M832 384v371.264c0 7.466667-1.856 15.018667-5.76 22.229333-6.250667 11.456-17.088 20.650667-30.613333 25.941334l-231.189334 104.128c-33.28 13.013333-71.616 13.013333-104.874666 0l-231.189334-104.128C205.44 794.453333 191.957333 775.210667 192 755.114667V384h640z" fill="#237FFA" p-id="609"></path><path d="M552.533333 115.413333l400.085334 181.44a48.810667 48.810667 0 0 1 0 88.96L552.533333 567.232a98.154667 98.154667 0 0 1-81.066666 0L71.381333 385.813333a48.810667 48.810667 0 0 1 0-88.96L471.466667 115.434667a98.154667 98.154667 0 0 1 81.066666 0z" fill="#70B8FF" p-id="610"></path></svg>