<svg class="icon" style="width: 1em;height: 1em;vertical-align: middle;fill: currentColor;overflow: hidden;" viewBox="0 0 1024 1024" version="1.1" xmlns="http://www.w3.org/2000/svg" p-id="646"><path d="M845.845333 144.554667l63.744 136.725333a128 128 0 0 1 4.266667 97.877333l-186.154667 511.488a128 128 0 0 1-164.053333 76.501334l-200.469333-72.96a128 128 0 0 1-76.501334-164.053334l186.154667-511.509333a128 128 0 0 1 66.197333-72.213333l136.704-63.765334a128 128 0 0 1 170.112 61.909334z" fill="#B3F2C6" p-id="647"></path><path d="M912.832 233.685333v150.848a128 128 0 0 1-37.504 90.517334L490.453333 859.925333a128 128 0 0 1-181.034666 0l-150.826667-150.826666a128 128 0 0 1 0-181.034667l384.853333-384.896a128 128 0 0 1 90.538667-37.482667h150.826667a128 128 0 0 1 128 128z" fill="#38D677" p-id="648"></path><path d="M682.666667 341.333333m-64 0a64 64 0 1 0 128 0 64 64 0 1 0-128 0Z" fill="#FFFFFF" p-id="649"></path></svg>