<svg class="icon" style="width: 1em;height: 1em;vertical-align: middle;fill: currentColor;overflow: hidden;" viewBox="0 0 1024 1024" version="1.1" xmlns="http://www.w3.org/2000/svg" p-id="396"><path d="M640 128v234.666667a21.333333 21.333333 0 0 0 18.837333 21.184L661.333333 384h234.666667v426.666667a85.333333 85.333333 0 0 1-85.333333 85.333333H213.333333a85.333333 85.333333 0 0 1-85.333333-85.333333V213.333333a85.333333 85.333333 0 0 1 85.333333-85.333333h426.666667z" fill="#237FFA" p-id="397"></path><path d="M320 448h384v64H320v-64z m0 128h384v64H320v-64z" fill="#FFFFFF" p-id="398"></path><path d="M640 128l256 256H661.333333a21.333333 21.333333 0 0 1-21.333333-21.333333V128z" fill="#BDE2FF" p-id="399"></path></svg>