<svg class="icon" style="width: 1.0166015625em;height: 1em;vertical-align: middle;fill: currentColor;overflow: hidden;" viewBox="0 0 1041 1024" version="1.1" xmlns="http://www.w3.org/2000/svg" p-id="13331"><path d="M526.089329 35.723942c268.377762 0 485.912229 217.555026 485.912229 485.91223 0 268.365427-217.534467 485.908117-485.912229 485.908117-268.357203 0-485.908117-217.542691-485.908118-485.908117C40.181211 253.278969 257.732126 35.723942 526.089329 35.723942z" fill="#B8D9FF" p-id="13332"></path><path d="M531.586901 28.894123c-23.02237 0-45.617106 1.710539-67.780095 4.815002C700.046178 66.706897 881.906045 269.459184 881.906045 514.806353s-181.863979 448.10768-418.107462 481.089003a488.136752 488.136752 0 0 0 67.780095 4.823226c210.26879 0 389.344919-133.561821 457.018106-320.49985 18.696681-51.632775 28.881788-107.336302 28.881787-165.416491 0.012336-268.348979-217.542691-485.908117-485.89167-485.908118z" fill="#6E6E96" opacity=".15" p-id="13333"></path><path d="M172.46424 517.705222c0-250.639147 176.321176-456.915309 402.737286-483.054478a492.314414 492.314414 0 0 0-52.389359-2.857751C254.430293 31.805329 36.88349 249.356243 36.88349 517.705222c0 268.361315 217.542691 485.908117 485.916341 485.908117 17.701608 0 35.172952-0.999185 52.385247-2.845415-226.399663-26.143281-402.720838-232.411219-402.720838-483.062702z" fill="#FFFFFF" opacity=".21" p-id="13334"></path><path d="M526.089329 1023.991776c-277.000357 0-502.355605-225.355247-502.355605-502.355604 0-277.004469 225.355247-502.359717 502.355605-502.359717s502.359717 225.359359 502.359716 502.359717c0 56.780838-9.399739 112.488478-27.936057 165.585078a16.447487 16.447487 0 1 1-31.056968-10.843006c17.315092-49.597398 26.09805-101.661919 26.098051-154.742072 0-258.867003-210.601851-469.464742-469.464742-469.464742S56.628699 262.773281 56.628699 521.636172s210.597739 469.46063 469.46063 469.46063c52.249555 0 103.561604-8.519798 152.501102-25.320907a16.447487 16.447487 0 1 1 10.682643 31.110422c-52.389359 17.985327-107.291072 27.105459-163.183745 27.105459z" fill="#6E6E96" p-id="13335"></path><path d="M519.658361 44.90164s-103.207983 108.277921-103.207983 473.169539c-0.748361 142.365338 16.472159 388.73225 103.207983 475.463963 0 0-271.149164-61.2011-271.149163-475.459851C248.505086 71.254627 519.658361 44.90164 519.658361 44.90164z" fill="#FFFFFF" opacity=".21" p-id="13336"></path><path d="M524.933893 706.111189c-131.682695 0-255.725533-18.334836-349.274729-51.628662-98.869958-35.189399-153.323477-84.137121-153.323476-137.834056s54.449407-102.644656 153.323476-137.829943c93.545084-33.289714 217.587921-51.624551 349.274729-51.624551 131.682695 0 255.721421 18.330725 349.270616 51.624551 98.87407 35.185287 153.323477 84.133009 153.323477 137.829943a16.447487 16.447487 0 0 1-32.894975 0c0-38.166394-47.915642-77.10582-131.460654-106.834654-90.095224-32.060265-210.219447-49.720754-338.242576-49.720754-128.023129 0-248.147353 17.656378-338.246688 49.720754-83.5409 29.728833-131.456542 68.668259-131.456543 106.834654s47.915642 77.109932 131.456543 106.838766c90.095224 32.064376 210.219447 49.724866 338.242576 49.724866 32.656486 0 65.218399-1.167772 96.777015-3.47042 9.037894-0.731913 16.940912 6.147248 17.598812 15.205702a16.447487 16.447487 0 0 1-15.205702 17.598811c-32.343984 2.368438-65.707712 3.564993-99.161901 3.564993z" fill="#6E6E96" p-id="13337"></path><path d="M520.147674 1023.860196c-121.497589 0-216.670974-221.222816-216.670974-503.634396S398.650085 16.591403 520.147674 16.591403c94.396241 0 174.820343 132.468063 204.882237 337.477768a16.447487 16.447487 0 1 1-32.549577 4.773883c-26.706608-182.143586-97.574718-309.356677-172.33266-309.356677-99.618319 0-183.775999 215.573104-183.775999 470.739423s84.157681 470.739422 183.775999 470.739422a16.447487 16.447487 0 0 1 0 32.894974z" fill="#6E6E96" p-id="13338"></path><path d="M826.946767 990.352553c-8.74184 10.431819-23.038818 10.431819-31.780658 0l-184.984889-221.132355c-8.737728-10.444154-4.7451-18.996848 8.873419-18.996848h68.051479c13.618519 0 24.75758-11.143173 24.75758-24.75758l0.008224-235.55269c0-13.618519 11.143173-24.761692 24.761692-24.761692h148.837424c13.618519 0 24.75758 11.143173 24.75758 24.761692v235.55269c0 13.618519 11.143173 24.75758 24.757581 24.75758h68.067926c13.618519 0 17.619371 8.552693 8.873419 18.996848l-184.980777 221.132355z" fill="#B5FFDF" p-id="13339"></path><path d="M826.946767 990.352553c-8.74184 10.431819-23.038818 10.431819-31.780658 0l-184.984889-221.132355c-8.737728-10.444154-4.7451-18.996848 8.873419-18.996848h68.051479c13.618519 0 24.75758-11.143173 24.75758-24.75758l0.008224-235.55269c0-13.618519 11.143173-24.761692 24.761692-24.761692h148.837424c13.618519 0 24.75758 11.143173 24.75758 24.761692v235.55269c0 13.618519 11.143173 24.75758 24.757581 24.75758h68.067926c13.618519 0 17.619371 8.552693 8.873419 18.996848l-184.980777 221.132355z" fill="#B5FFDF" opacity=".41" p-id="13340"></path><path d="M1003.070572 762.550742h-44.029923l-132.093882 157.887654c-8.74184 10.440043-23.038818 10.440043-31.780658 0l-132.081547-157.887654h-44.029923c-13.622631 0-17.611147 8.552693-8.873419 18.992736l184.984889 221.132355c8.74184 10.440043 23.038818 10.440043 31.780658 0l184.997225-221.132355c8.745951-10.440043 4.749212-18.992736-8.87342-18.992736z" fill="#6E6E96" opacity=".15" p-id="13341"></path><path d="M719.507668 472.09634h190.737398v44.552131h-190.737398z" fill="#FFFFFF" opacity=".35" p-id="13342"></path><path d="M811.058494 1014.624932c-10.810111 0-21.196699-5.000036-28.499384-13.70898l-184.993113-221.144691c-11.977883-14.317538-8.3471-26.402329-6.233598-30.9295s9.054342-15.065898 27.72224-15.065898h68.051479c4.506612 0 8.310093-3.803481 8.310093-8.310093l0.008223-235.55269c0-22.722204 18.486976-41.209179 41.20918-41.209179h148.837424c22.718092 0 41.205068 18.486976 41.205068 41.209179v235.55269c0 4.506612 3.807593 8.310093 8.310093 8.310093h68.067926c18.676122 0 25.61285 10.538727 27.726352 15.074122 2.117614 4.531283 5.744285 16.616074-6.245934 30.9295l-184.980777 221.124131c-7.298572 8.72128-17.685161 13.721316-28.495272 13.721316z m-181.563813-247.958206l178.290763 213.130652c2.080607 2.483571 4.457269 2.491794 6.554324-0.012336l178.28665-213.118316h-57.631996c-22.718092 0-41.205068-18.482864-41.205067-41.205068v-235.552689c0-4.506612-3.807593-8.314205-8.310093-8.314205H736.641837c-4.510723 0-8.314205 3.807593-8.314204 8.314205l-0.008224 235.552689c0 22.718092-18.486976 41.205068-41.205068 41.205068h-57.61966z" fill="#6E6E96" p-id="13343"></path><path d="M811.058494 1014.624932c-10.810111 0-21.196699-5.000036-28.499384-13.70898l-184.993113-221.144691c-11.977883-14.317538-8.3471-26.402329-6.233598-30.9295s9.054342-15.065898 27.72224-15.065898h68.051479c4.506612 0 8.310093-3.803481 8.310093-8.310093l0.008223-235.55269c0-22.722204 18.486976-41.209179 41.20918-41.209179h148.837424c22.718092 0 41.205068 18.486976 41.205068 41.209179v235.55269c0 4.506612 3.807593 8.310093 8.310093 8.310093h68.067926c18.676122 0 25.61285 10.538727 27.726352 15.074122 2.117614 4.531283 5.744285 16.616074-6.245934 30.9295l-184.980777 221.124131c-7.298572 8.72128-17.685161 13.721316-28.495272 13.721316z m-181.563813-247.958206l178.290763 213.130652c2.080607 2.483571 4.457269 2.491794 6.554324-0.012336l178.28665-213.118316h-57.631996c-22.718092 0-41.205068-18.482864-41.205067-41.205068v-235.552689c0-4.506612-3.807593-8.314205-8.310093-8.314205H736.641837c-4.510723 0-8.314205 3.807593-8.314204 8.314205l-0.008224 235.552689c0 22.718092-18.486976 41.205068-41.205068 41.205068h-57.61966z" fill="#6E6E96" opacity=".41" p-id="13344"></path></svg>